<?xml version="1.0" standalone="no"?>
<!DOCTYPE svg PUBLIC "-//W3C//DTD SVG 20010904//EN"
 "http://www.w3.org/TR/2001/REC-SVG-20010904/DTD/svg10.dtd">
<svg version="1.0" xmlns="http://www.w3.org/2000/svg"
 width="512.000000pt" height="512.000000pt" viewBox="0 0 512.000000 512.000000"
 preserveAspectRatio="xMidYMid meet">
<metadata>
Created by potrace 1.14, written by Peter Selinger 2001-2017
</metadata>
<g transform="translate(0.000000,512.000000) scale(0.100000,-0.100000)"
fill="#000000" stroke="none">
<path d="M340 5094 c-89 -24 -141 -54 -205 -118 -63 -63 -98 -124 -121 -211
-11 -41 -14 -430 -14 -2216 0 -2065 1 -2168 18 -2215 36 -96 57 -130 117 -189
68 -67 145 -110 225 -125 34 -6 809 -10 2215 -10 1948 0 2167 2 2216 16 153
45 274 168 313 319 14 53 16 299 16 2221 0 2090 -1 2164 -19 2223 -26 85 -61
140 -127 200 -64 58 -104 81 -183 105 -50 14 -258 16 -2225 15 -1879 0 -2178
-2 -2226 -15z"/>
</g>
</svg>
